<svg xmlns="http://www.w3.org/2000/svg" viewBox="0 0 225.79 64.96"><title>Sumitomo Mitsui Banking logo - Brandlogos.net</title><path d="M271.1,384v32.46l13.05-5.64V378.37Z" transform="translate(-271.1 -351.52)" style="fill:#bed530"/><path d="M300.59,357.16v32.47L313.66,384V351.52Z" transform="translate(-271.1 -351.52)" style="fill:#bed530"/><path d="M285.85,377.64v32.47l13.06-19.73V357.88Z" transform="translate(-271.1 -351.52)" style="fill:#bed530"/><path d="M338.05,375c0,3.89,1.26,7.52,7.41,12.64l2.52,2.12c4.9,4.12,6.25,6.23,6.25,9.89s-2.6,7.11-7.57,7.11c-2.05,0-6.87-.51-7.85-5.44a10.48,10.48,0,0,1-.15-2c0-.31,0-1-.82-1s-.81.87-.85,1.3l-.05.68c-.09,1.16-.23,3.08-.23,5.37,0,1.54,0,2,1,2.54a17.33,17.33,0,0,0,7.68,1.57,14.79,14.79,0,0,0,8.65-2.47,12.22,12.22,0,0,0,4.92-9.76c0-4.45-1.36-8.11-8.3-13.68l-1.56-1.26c-5.33-4.45-6.65-6.26-6.65-9.19,0-3.69,2.6-6.18,6.45-6.18,4.63,0,6.18,2,6.62,2.79a10.11,10.11,0,0,1,.68,2.68c0,.43.12,1.14.86,1.14s.8-1.14.8-1.73c0-3,.12-4.83.17-5.59l0-.45c0-.53-.32-.82-1-.82a7.14,7.14,0,0,1-1.86-.28,22.48,22.48,0,0,0-5.29-.56C342.85,364.38,338.05,368.64,338.05,375Z" transform="translate(-271.1 -351.52)" style="fill:#005b47"/><path d="M406.19,365.55s-14.76,34.63-14.85,34.79c-.09-.11-15.44-34.86-15.44-34.86-.21-.52-.5-1.08-1.14-1.08s-.91.94-1,1.36c0,0-3.74,37.26-3.74,37.26-.18,2-.35,3.86-1.7,4.15a5.8,5.8,0,0,1-1.48.15c-.52,0-.92.29-.92.68s.16.91,1.27.91c.91,0,2.55-.08,3.2-.11l.88,0h1.29c.63,0,2.48.11,3.81.14.45,0,1.32,0,1.32-.91a.77.77,0,0,0-.83-.7,6.39,6.39,0,0,1-1.84-.26,1.36,1.36,0,0,1-1-1.37c0-1,0-2,.06-2.86,0,0,1.91-25.07,2-25.07-.13,0,12.53,28.44,12.53,28.44,1.05,2.16,1.27,2.62,1.86,2.62s.87-.46,1.7-2.41c0,0,12.53-29.17,12.53-29.17l2.38,28c0,.35,0,.63.05.88,0,.46,0,1-.09,1a.74.74,0,0,0-.53.75c0,.72.79.89,1.78,1,2,.11,7.58.07,8.7.07,1.38,0,1.48-.7,1.48-.91s-.07-.68-.8-.68a10.1,10.1,0,0,1-3.24-.48c-2-.73-2.33-3.82-2.52-5.67l-3.48-34.86c-.06-.8-.17-1.9-1-1.9C406.65,364.39,406.36,365.12,406.19,365.55Z" transform="translate(-271.1 -351.52)" style="fill:#005b47"/><path d="M432.91,368.09c0-.09,0-.12.34-.22a12,12,0,0,1,2.59-.26c5.25,0,7.12,4.82,7.12,9.34A8.44,8.44,0,0,1,441,382.4c-1.07,1.22-1.69,1.33-4.77,1.33a20.08,20.08,0,0,1-3.29-.21.22.22,0,0,1-.1-.22C432.88,383.18,432.91,368.09,432.91,368.09Zm-.47-2.81-2.08.06-.72,0c-1.2-.05-3.7-.14-5.58-.14-.31,0-1.29,0-1.29.85a.8.8,0,0,0,.85.8,9.14,9.14,0,0,1,1.78.14c1.54.34,2,.94,2.09,2.85s.12,3.41.12,12.24v10c0,5.33,0,9.92-.27,12.28-.25,1.7-.5,2.6-1.29,2.75a7.2,7.2,0,0,1-1.59.22.78.78,0,0,0-.88.75c0,.89,1,.89,1.32.89,1.19,0,2.91-.11,4.17-.18h1.29l2.15.09c1.87.11,4.46.24,5.27.24,9.61,0,14.65-6.43,14.65-12.78,0-6.91-5.45-10.93-9.31-12.18a11.88,11.88,0,0,0,4.92-10c0-3.32-2.44-8.94-11.57-8.94C435,365.17,433.56,365.21,432.44,365.27Zm2.17,40.36c-1.47-.74-1.48-1.26-1.66-3.85v-.23c0-.83,0-8,0-12.23v-3.22a40.47,40.47,0,0,1,4.19.11h0a8.71,8.71,0,0,1,4.44,1.58c4.7,3.31,5.21,8.79,5.21,11,0,7.42-6.67,7.65-7.44,7.65A13.18,13.18,0,0,1,434.61,405.64Z" transform="translate(-271.1 -351.52)" style="fill:#005b47"/><path d="M466.09,370.94a24.29,24.29,0,0,0-5.44,15.92c.18,7.17,2.47,12.85,6.82,16.9s10,5.94,17.52,5.75c3.1-.08,7.2-.56,9.43-1.6A2.31,2.31,0,0,0,496,406a68.23,68.23,0,0,0,.94-7.39c0-1.14-.56-1.25-.81-1.25-.7,0-.76.74-.88,1.22-.23,1.09-.71,3.43-1.69,4.62-1.91,2.29-4.82,2.83-8.61,2.93a17.24,17.24,0,0,1-13.35-5.79,22.18,22.18,0,0,1-5.45-14.06c-.13-4.83.26-10.36,4.15-14.66,2.46-2.79,6.22-4.2,11.49-4.33,4.63-.12,8.52,1.38,10.14,2.84,1.27,1.1,2,3.06,2.21,5.43.05.68,0,1.59.83,1.57s.83-1,.83-1.6v-2c0-1.23,0-2.76,0-3.85,0-1.25.1-2,.14-2.46l.05-.76c0-.62-.36-.93-1.09-1a38.27,38.27,0,0,1-5-.66l-.21,0a40.39,40.39,0,0,0-7.59-.47C475,364.49,469.8,366.66,466.09,370.94Z" transform="translate(-271.1 -351.52)" style="fill:#005b47"/></svg>