<?xml version="1.0" encoding="UTF-8"?><svg id="Layer_1" xmlns="http://www.w3.org/2000/svg" viewBox="0 0 409.69 91.46"><defs><style>.cls-1{fill:#fff;}.cls-2{fill:#282828;}.cls-3{fill:red;}</style></defs><path id="lozenge-path" class="cls-3" d="M127.94,14.28c-1.5-5.61-5.92-10.04-11.56-11.56C106.19,0,65.33,0,65.33,0c0,0-40.84,0-51.05,2.72-5.61,1.5-10.04,5.92-11.56,11.56C0,24.46,0,45.73,0,45.73c0,0,0,21.26,2.72,31.45,1.5,5.61,5.92,10.04,11.56,11.56,10.21,2.72,51.05,2.72,51.05,2.72,0,0,40.86,0,51.05-2.72,5.61-1.5,10.04-5.92,11.56-11.56,2.72-10.19,2.72-31.45,2.72-31.45,0,0,0-21.26-2.72-31.45Z"/><polygon id="play-polygon" class="cls-1" points="52.28 65.33 86.22 45.73 52.28 26.13 52.28 65.33"/><g id="youtube-paths"><path class="cls-2" d="M189.65,83.21c-2.58-1.75-4.43-4.45-5.51-8.13-1.08-3.68-1.64-8.56-1.64-14.67v-8.31c0-6.17.62-11.12,1.87-14.86s3.2-6.46,5.84-8.17,6.11-2.58,10.41-2.58,7.63.87,10.19,2.62,4.43,4.47,5.61,8.17c1.18,3.7,1.77,8.65,1.77,14.8v8.31c0,6.11-.58,11.02-1.73,14.72s-3.01,6.42-5.61,8.13c-2.58,1.7-6.09,2.58-10.52,2.58-4.53.02-8.11-.85-10.68-2.6ZM204.14,74.23c.71-1.87,1.08-4.93,1.08-9.15v-17.85c0-4.12-.35-7.11-1.08-9.02-.71-1.89-1.97-2.85-3.78-2.85s-2.97.96-3.7,2.85c-.71,1.89-1.08,4.91-1.08,9.02v17.85c0,4.24.33,7.3,1.02,9.15.69,1.87,1.93,2.81,3.74,2.81,1.83,0,3.08-.94,3.8-2.81Z"/><path class="cls-2" d="M388.09,60.55v2.89c0,3.68.1,6.42.33,8.27.21,1.83.67,3.18,1.35,4.01.69.83,1.75,1.27,3.18,1.27,1.93,0,3.26-.75,3.97-2.24s1.1-3.99,1.16-7.48l11.12.64c.06.5.08,1.18.08,2.06,0,5.3-1.45,9.25-4.34,11.87s-6.98,3.93-12.28,3.93c-6.36,0-10.81-2-13.37-5.99-2.56-3.99-3.82-10.14-3.82-18.5v-10c0-8.61,1.33-14.86,3.97-18.83,2.64-3.95,7.17-5.92,13.59-5.92,4.43,0,7.82.81,10.19,2.43s4.03,4.14,5.01,7.57c.96,3.43,1.45,8.17,1.45,14.2v9.81h-21.6v.02ZM389.73,36.44c-.64.81-1.08,2.14-1.31,3.97s-.33,4.64-.33,8.36v4.12h9.44v-4.12c0-3.68-.12-6.46-.37-8.36s-.71-3.24-1.35-4.01-1.66-1.16-3.03-1.16c-1.37-.02-2.39.39-3.03,1.21Z"/><path class="cls-2" d="M158.26,59.47l-14.67-52.98h12.8l5.13,24.01c1.31,5.92,2.27,10.95,2.89,15.13h.37c.44-2.99,1.39-8,2.89-15.05l5.32-24.11h12.8l-14.84,53v25.42h-12.7v-25.42Z"/><path class="cls-2" d="M259.82,27.6v57.26h-10.08l-1.12-7h-.27c-2.74,5.3-6.86,7.94-12.33,7.94-3.8,0-6.61-1.25-8.42-3.74s-2.7-6.38-2.7-11.68V27.6h12.89v42.05c0,2.56.27,4.39.83,5.47.56,1.08,1.5,1.64,2.81,1.64,1.12,0,2.2-.33,3.22-1.02,1.02-.69,1.79-1.56,2.29-2.62V27.6h12.89Z"/><path class="cls-2" d="M325.96,27.6v57.26h-10.08l-1.12-7h-.27c-2.74,5.3-6.86,7.94-12.33,7.94-3.8,0-6.61-1.25-8.42-3.74-1.81-2.49-2.7-6.38-2.7-11.68V27.6h12.89v42.05c0,2.56.27,4.39.83,5.47.56,1.08,1.5,1.64,2.81,1.64,1.12,0,2.2-.33,3.22-1.02s1.79-1.56,2.29-2.62V27.6h12.89Z"/><path class="cls-2" d="M294.87,16.86h-12.8v68.01h-12.62V16.86h-12.8V6.49h38.2v10.37h.02Z"/><path class="cls-2" d="M368.64,36.77c-.79-3.62-2.04-6.24-3.78-7.86-1.75-1.62-4.14-2.43-7.19-2.43-2.37,0-4.57.67-6.63,2.02-2.06,1.33-3.64,3.1-4.76,5.28h-.1V3.6h-12.43v81.29h10.64l1.31-5.43h.27c1,1.93,2.49,3.45,4.49,4.57s4.2,1.68,6.63,1.68c4.37,0,7.57-2.02,9.62-6.03s3.08-10.29,3.08-18.83v-9.06c.02-6.4-.37-11.41-1.14-15.03ZM356.81,60.13c0,4.18-.17,7.44-.52,9.81-.33,2.37-.91,4.05-1.73,5.05s-1.89,1.5-3.26,1.5c-1.06,0-2.04-.25-2.95-.75-.89-.5-1.64-1.25-2.2-2.24v-32.53c.44-1.56,1.18-2.83,2.24-3.82s2.2-1.5,3.45-1.5c1.31,0,2.33.52,3.03,1.54.71,1.02,1.21,2.76,1.5,5.18.27,2.43.42,5.88.42,10.37v7.4h.02Z"/></g></svg>